<svg xmlns="http://www.w3.org/2000/svg" width="512" height="512" viewBox="0 0 512 512" role="img" aria-labelledby="title">
  <title id="title">Cardboard box with a T on the left face and Dev on the right face</title>
  <g stroke="#2c2c3d" stroke-width="16" stroke-linecap="round" stroke-linejoin="round">
    <path fill="#d3a644" d="M9 99 255 184 255 502 9 399Z"/>
    <path fill="#e7bf55" d="M255 184 501 97 501 399 255 502Z"/>
    <path fill="#efc75e" d="M9 99 255 10 501 97 255 184Z"/>
    <path fill="#f7e3af" d="M108 63 173 40 414 128 350 151Z"/>
    <path fill="#f7e3af" d="M350 151 414 128 414 208 350 232Z"/>
  </g>
  <path id="left-face-t" fill="#2c2c3d" stroke="none"
        d="M 32.33966 156.22629 L 32.35457 155.75867 L 32.39929 155.33221 L 32.47384 154.94691 L 32.57821 154.60276 L 32.71241 154.29975 L 32.87645 154.03788 L 33.07032 153.81714 L 33.29405 153.63755 L 33.54763 153.49911 L 33.83108 153.40181 L 34.14442 153.34566 L 34.48765 153.33068 L 34.86080 153.35687 L 35.26387 153.42424 L 35.69688 153.53282 L 36.15986 153.68260 L 224.89401 220.96709 L 225.40042 221.16360 L 225.87426 221.38044 L 226.31552 221.61763 L 226.72417 221.87516 L 227.10020 222.15303 L 227.44359 222.45124 L 227.75432 222.76979 L 228.03238 223.10868 L 228.27776 223.46789 L 228.49044 223.84744 L 228.67042 224.24730 L 228.81769 224.66748 L 228.93224 225.10797 L 229.01406 225.56876 L 229.06316 226.04984 L 229.07952 226.55120 L 229.07952 268.94383 L 229.06316 269.43333 L 229.01406 269.87883 L 228.93224 270.28032 L 228.81769 270.63779 L 228.67042 270.95125 L 228.49044 271.22068 L 228.27776 271.44609 L 228.03238 271.62748 L 227.75432 271.76485 L 227.44359 271.85820 L 227.10020 271.90755 L 226.72417 271.91291 L 226.31552 271.87428 L 225.87426 271.79168 L 225.40042 271.66513 L 224.89401 271.49463 L 159.68107 247.48248 L 159.18996 247.31738 L 158.73064 247.19542 L 158.30309 247.11660 L 157.90729 247.08089 L 157.54321 247.08829 L 157.21085 247.13878 L 156.91018 247.23235 L 156.64121 247.36901 L 156.40390 247.54873 L 156.19826 247.77153 L 156.02426 248.03739 L 155.88192 248.34632 L 155.77121 248.69832 L 155.69214 249.09340 L 155.64470 249.53156 L 155.62888 250.01281 L 155.62888 409.76167 L 155.61307 410.24232 L 155.56563 410.67867 L 155.48657 411.07072 L 155.37588 411.41844 L 155.23358 411.72185 L 155.05967 411.98094 L 154.85415 412.19570 L 154.61704 412.36615 L 154.34836 412.49227 L 154.04810 412.57409 L 153.71628 412.61161 L 153.35292 412.60483 L 152.95804 412.55376 L 152.53165 412.45843 L 152.07377 412.31885 L 151.58442 412.13503 L 105.50217 393.34621 L 105.02350 393.13552 L 104.57582 392.90642 L 104.15909 392.65891 L 103.77331 392.39298 L 103.41845 392.10865 L 103.09450 391.80590 L 102.80145 391.48473 L 102.53928 391.14514 L 102.30798 390.78714 L 102.10754 390.41070 L 101.93795 390.01583 L 101.79921 389.60252 L 101.69130 389.17076 L 101.61423 388.72054 L 101.56799 388.25186 L 101.55258 387.76471 L 101.55258 230.05007 L 101.53716 229.56350 L 101.49092 229.09659 L 101.41386 228.64933 L 101.30597 228.22176 L 101.16727 227.81386 L 100.99776 227.42565 L 100.79745 227.05714 L 100.56634 226.70832 L 100.30445 226.37922 L 100.01178 226.06981 L 99.68836 225.78012 L 99.33419 225.51014 L 98.94930 225.25988 L 98.53369 225.02933 L 98.08739 224.81849 L 97.61041 224.62736 L 36.15986 202.00057 L 35.69688 201.81483 L 35.26387 201.60959 L 34.86080 201.38485 L 34.48765 201.14062 L 34.14442 200.87689 L 33.83108 200.59366 L 33.54763 200.29094 L 33.29405 199.96872 L 33.07032 199.62699 L 32.87645 199.26576 L 32.71241 198.88501 L 32.57821 198.48474 L 32.47384 198.06494 L 32.39929 197.62562 L 32.35457 197.16675 L 32.33966 196.68833 Z"/>
  <path id="right-face-dev" fill="#2c2c3d" fill-rule="evenodd" stroke="#2c2c3d" stroke-width="1.6" stroke-linejoin="round" stroke-linecap="round"
        d="M 302.2027 363.6850 L 302.2027 416.4598 L 308.6393 413.8523 L 318.3141 408.2424 L 325.3745 400.3205 L 329.7028 390.3019 L 331.1439 378.4043 L 329.7102 367.7293 L 325.4041 361.2354 L 318.3512 358.9957 L 308.6393 361.1477 L 302.2027 363.6850 Z M 284.1461 353.8717 L 303.1745 346.4367 L 316.9954 341.7387 L 326.7219 340.0393 L 333.8611 341.0025 L 339.8899 344.3403 L 344.0931 348.9400 L 347.0489 354.9132 L 348.8096 362.2798 L 349.3962 371.1099 L 348.8096 380.5282 L 347.0489 389.3664 L 344.0931 397.7115 L 339.8899 405.6616 L 333.8094 413.8441 L 326.6035 420.5549 L 316.8690 426.6197 L 303.1745 432.9128 L 284.1461 440.6877 L 284.1461 353.8717 Z M 412.5676 356.3521 L 412.5676 362.1125 L 374.9285 377.2840 L 376.2484 383.0448 L 379.0452 386.4061 L 383.2741 387.3849 L 388.8878 386.0029 L 394.0349 383.4353 L 399.2930 379.8701 L 404.6863 375.2915 L 410.2103 369.6959 L 410.2103 385.3183 L 404.5287 390.0258 L 398.8334 394.0815 L 393.1245 397.4648 L 387.4017 400.1552 L 375.1860 402.9462 L 365.9893 400.0763 L 360.2375 391.7906 L 358.3172 378.3730 L 360.2047 363.6127 L 365.8583 350.7195 L 374.7907 340.4516 L 386.5068 333.5839 L 397.2027 331.6184 L 405.4885 335.1049 L 410.7998 343.5078 L 412.5676 356.3521 Z M 396.0885 356.2123 L 395.4198 351.2442 L 393.4124 347.9354 L 390.3225 346.4913 L 386.4057 347.1573 L 382.1498 349.6840 L 378.7700 353.5328 L 376.3825 358.5590 L 375.1026 364.6158 L 396.0885 356.2123 Z M 418.3671 322.5229 L 434.2536 316.2446 L 446.5597 354.8854 L 458.7455 306.5655 L 474.4039 300.3774 L 455.1581 370.8131 L 437.8731 377.8757 L 418.3671 322.5229 Z"/>
</svg>
